# xmcd
#
# Track frame offsets:
#	182
#	18575
#	35205
#	50075
#	68440
#	92242
#	107480
#	125770
#	138367
#	160272
#
# Disc length: 2371 seconds
#
# Revision: 1
# Processed by: cddbd v1.5.2PL0 Copyright (c) Steve Scherf et al.
# Submitted via: audiograbber 1.83.01
#
DISCID=8b09410a
DTITLE=Jeanne Carroll and Christian Christl - Tribute To Willie Dixon
DYEAR=1991
DGENRE=Blues
TTITLE0=Hoochie Coochie Women
TTITLE1=I'm Ready
TTITLE2=I Just Wanna Make Love To You
TTITLE3=Lay It On Them Girls
TTITLE4=What Ever I Am You Made Me
TTITLE5=Spoonful
TTITLE6=CC-Shimme
TTITLE7=My Babe
TTITLE8=Little Red Rooster
TTITLE9=Donate
EXTD=
EXTT0=
EXTT1=
EXTT2=
EXTT3=
EXTT4=
EXTT5=
EXTT6=
EXTT7=
EXTT8=
EXTT9=
PLAYORDER=
